<?xml version="1.0" encoding="UTF-8"?>
<svg width="20px" height="20px" viewBox="0 0 20 20" version="1.1" xmlns="http://www.w3.org/2000/svg" xmlns:xlink="http://www.w3.org/1999/xlink">
    <title>Group 8</title>
    <g id="Nav" stroke="none" stroke-width="1" fill="none" fill-rule="evenodd">
        <g id="main-Nav-02" transform="translate(-583.000000, -100.000000)">
            <g id="Group-19" transform="translate(202.000000, 60.000000)">
                <g id="Group-15" transform="translate(381.000000, 38.000000)">
                    <g id="Group-8" transform="translate(0.000000, 2.000000)">
                        <path d="M10,20 L10,20 C4.47724138,20 0,15.5227586 0,10 L0,10 C0,4.47724138 4.47724138,0 10,0 L10,0 C15.5227586,0 20,4.47724138 20,10 L20,10 C20,15.5227586 15.5227586,20 10,20" id="Fill-5" fill="#FCCB35"></path>
                        <path d="M9.9137931,14.6551724 C9.24724138,14.6551724 8.70689655,14.1148276 8.70689655,13.4482759 L8.70689655,6.55172414 C8.70689655,5.88517241 9.24724138,5.34482759 9.9137931,5.34482759 C10.5803448,5.34482759 11.1206897,5.88517241 11.1206897,6.55172414 L11.1206897,13.4482759 C11.1206897,14.1148276 10.5803448,14.6551724 9.9137931,14.6551724" id="Fill-7" fill="#FFFFFF"></path>
                        <path d="M5.94827586,11.5517241 C5.28172414,11.5517241 4.74137931,11.0113793 4.74137931,10.3448276 L4.74137931,7.5862069 C4.74137931,6.91965517 5.28172414,6.37931034 5.94827586,6.37931034 C6.61482759,6.37931034 7.15517241,6.91965517 7.15517241,7.5862069 L7.15517241,10.3448276 C7.15517241,11.0113793 6.61482759,11.5517241 5.94827586,11.5517241" id="Fill-9" fill="#FFFFFF"></path>
                        <path d="M13.8793103,13.9655172 C13.2127586,13.9655172 12.6724138,13.4251724 12.6724138,12.7586207 L12.6724138,10.3448276 C12.6724138,9.67827586 13.2127586,9.13793103 13.8793103,9.13793103 C14.5458621,9.13793103 15.0862069,9.67827586 15.0862069,10.3448276 L15.0862069,12.7586207 C15.0862069,13.4251724 14.5458621,13.9655172 13.8793103,13.9655172" id="Fill-11" fill="#FFFFFF"></path>
                    </g>
                </g>
            </g>
        </g>
    </g>
</svg>