<?xml version="1.0" encoding="UTF-8"?>
<svg width="20px" height="20px" viewBox="0 0 20 20" version="1.1" xmlns="http://www.w3.org/2000/svg" xmlns:xlink="http://www.w3.org/1999/xlink">
    <title>Group 4</title>
    <g id="Nav" stroke="none" stroke-width="1" fill="none" fill-rule="evenodd">
        <g id="main-Nav-02" transform="translate(-583.000000, -316.000000)">
            <g id="Group-19" transform="translate(202.000000, 60.000000)">
                <g id="Group-18" transform="translate(381.000000, 255.000000)">
                    <g id="Group-4" transform="translate(0.000000, 1.000000)">
                        <path d="M11.7841379,20 L8.2162069,20 C3.67862069,20 0,16.3217241 0,11.7841379 L0,8.21586207 C0,3.67827586 3.67862069,0 8.2162069,0 L11.7841379,0 C16.3217241,0 20,3.67827586 20,8.21586207 L20,11.7841379 C20,16.3217241 16.3217241,20 11.7841379,20" id="Fill-13" fill="#856E79"></path>
                        <path d="M9.91389655,14.3103448 C9.24734483,14.3103448 8.707,13.77 8.707,13.1034483 L8.707,8.27586207 C8.707,7.60931034 9.24734483,7.06896552 9.91389655,7.06896552 C10.5804483,7.06896552 11.1207931,7.60931034 11.1207931,8.27586207 L11.1207931,13.1034483 C11.1207931,13.77 10.5804483,14.3103448 9.91389655,14.3103448" id="Fill-15" fill="#FFFFFF"></path>
                        <path d="M5.94837931,14.3103448 C5.28182759,14.3103448 4.74148276,13.77 4.74148276,13.1034483 L4.74148276,10.3448276 C4.74148276,9.67827586 5.28182759,9.13793103 5.94837931,9.13793103 C6.61493103,9.13793103 7.15527586,9.67827586 7.15527586,10.3448276 L7.15527586,13.1034483 C7.15527586,13.77 6.61493103,14.3103448 5.94837931,14.3103448" id="Fill-17" fill="#FFFFFF"></path>
                        <path d="M13.8794138,14.3103448 C13.2128621,14.3103448 12.6725172,13.77 12.6725172,13.1034483 L12.6725172,6.55172414 C12.6725172,5.88517241 13.2128621,5.34482759 13.8794138,5.34482759 C14.5459655,5.34482759 15.0863103,5.88517241 15.0863103,6.55172414 L15.0863103,13.1034483 C15.0863103,13.77 14.5459655,14.3103448 13.8794138,14.3103448" id="Fill-19" fill="#FFFFFF"></path>
                    </g>
                </g>
            </g>
        </g>
    </g>
</svg>