<svg width="41" height="41" viewBox="0 0 41 41" fill="none" xmlns="http://www.w3.org/2000/svg">
<rect width="41" height="41" rx="20.5" fill="url(#paint0_linear_487_907)"/>
<path fill-rule="evenodd" clip-rule="evenodd" d="M25.969 10.7636C25.7033 10.2916 25.2064 10 24.6678 10H23.5745C22.7589 10 22.0978 10.6661 22.0978 11.4878C22.0978 11.7438 22.1633 11.9955 22.2881 12.2185L30.7377 27.3187C31.0029 27.7926 31.5009 28.0857 32.0408 28.0857H33.1615C33.9848 28.0857 34.6522 27.4133 34.6522 26.5838C34.6522 26.324 34.5854 26.0687 34.4582 25.8428L25.969 10.7636ZM17.584 10.8999C16.995 10.5494 16.2355 10.7462 15.8875 11.3396L15.2467 12.4323L7.8328 25.0753L7.17235 26.2015C7.05952 26.3939 7 26.6133 7 26.8368C7 27.5266 7.55499 28.0857 8.2396 28.0857H25.1583C25.4249 28.0857 25.6866 28.0132 25.9158 27.8758C26.6189 27.4543 26.8498 26.5384 26.4314 25.83L25.8376 24.8245C25.5679 24.3678 25.0795 24.088 24.552 24.088H13.9151C13.8259 24.088 13.7383 24.0639 13.6615 24.0181C13.4244 23.877 13.3457 23.5689 13.4858 23.33L16.5136 18.1674C16.5595 18.0891 16.6256 18.0249 16.7048 17.9815C16.9468 17.8491 17.2496 17.9393 17.381 18.1831L19.0937 21.3596C19.3555 21.845 19.8599 22.1473 20.4082 22.1473H21.679C21.9441 22.1473 22.2045 22.0763 22.4334 21.9416C23.1468 21.5218 23.3874 20.5989 22.9708 19.8801L18.0235 11.345C17.917 11.1614 17.7657 11.0081 17.584 10.8999Z" fill="white"/>
<defs>
<linearGradient id="paint0_linear_487_907" x1="3.68408e-07" y1="17.0833" x2="41.6171" y2="17.1251" gradientUnits="userSpaceOnUse">
<stop stop-color="#0056C9"/>
<stop offset="1" stop-color="#2917A7"/>
</linearGradient>
</defs>
</svg>
