<?xml version="1.0" encoding="UTF-8"?>
<svg width="20px" height="20px" viewBox="0 0 20 20" version="1.1" xmlns="http://www.w3.org/2000/svg" xmlns:xlink="http://www.w3.org/1999/xlink">
    <title>SD LOGO_Small</title>
    <g id="Nav" stroke="none" stroke-width="1" fill="none" fill-rule="evenodd">
        <g id="service-desk_Product-Nav" transform="translate(-572.000000, -100.000000)">
            <g id="Group-19" transform="translate(202.000000, 60.000000)">
                <g id="Group-9-Copy" transform="translate(370.000000, 38.000000)">
                    <g id="Group-10-Copy" transform="translate(0.000000, 2.000000)">
                        <path d="M10,0 C15.5228475,-1.01453063e-15 20,4.4771525 20,10 C20,15.5228475 15.5228475,20 10,20 C4.4771525,20 6.76353751e-16,15.5228475 0,10 C-6.76353751e-16,4.4771525 4.4771525,1.01453063e-15 10,0 Z" id="Rectangle" fill="#004970" transform="translate(10.000000, 10.000000) rotate(-270.000000) translate(-10.000000, -10.000000) "></path>
                        <g transform="translate(4.623514, 4.629630)" fill="#FFFFFF" fill-rule="nonzero" id="Polygon">
                            <g>
                                <path d="M4.67882111,0.21220334 L0.457487033,3.28323892 C0.0685710187,3.56617671 -0.0941672004,4.06769595 0.0543854982,4.52549891 L1.66679164,9.49453886 C1.81534434,9.95234181 2.24139852,10.2622978 2.72212516,10.2622978 L7.93998103,10.2622978 C8.42070766,10.2622978 8.84676185,9.95234181 8.99531455,9.49453886 L10.6077207,4.52549891 C10.7562734,4.06769595 10.5935352,3.56617671 10.2046192,3.28323892 L5.98328508,0.21220334 C5.59436906,-0.0707344465 5.06773712,-0.0707344465 4.67882111,0.21220334 Z M5.33086815,2.48444444 L8.24793552,4.60648148 L7.13366868,8.04 L3.52825256,8.04 L2.41398572,4.60648148 L5.33086815,2.48444444 Z"></path>
                            </g>
                        </g>
                    </g>
                </g>
            </g>
        </g>
    </g>
</svg>