<?xml version="1.0" encoding="UTF-8"?>
<svg width="20px" height="19px" viewBox="0 0 20 19" version="1.1" xmlns="http://www.w3.org/2000/svg" xmlns:xlink="http://www.w3.org/1999/xlink">
    <title>Group 7</title>
    <g id="Nav" stroke="none" stroke-width="1" fill="none" fill-rule="evenodd">
        <g id="main-Nav-02" transform="translate(-583.000000, -209.000000)">
            <g id="Group-19" transform="translate(202.000000, 60.000000)">
                <g id="Group-16" transform="translate(381.000000, 147.000000)">
                    <g id="Group-7" transform="translate(0.000000, 2.000000)">
                        <path d="M8.14931034,18.4088351 L1.50551724,13.9398092 C0.563448276,13.3060424 0,12.2538465 0,11.129191 L0,3.40186183 C0,1.52301354 1.5437931,0 3.44827586,0 L16.5517241,0 C18.4562069,0 20,1.52301354 20,3.40186183 L20,11.1523236 C20,12.2643923 19.4489655,13.3060424 18.5248276,13.9421905 L12.0648276,18.3880838 C10.8906897,19.1963661 9.33241379,19.2045306 8.14931034,18.4088351" id="Fill-21" fill="#0D57DE"></path>
                        <path d="M10.063931,14.9718661 C9.68393103,14.9718661 9.30358621,14.864027 8.97427586,14.6469883 L5.796,12.5568844 C5.24151724,12.1922048 5.09151724,11.4529802 5.46117241,10.9056206 C5.83117241,10.3586012 6.58013793,10.2102801 7.13496552,10.57564 L10.0518621,12.4936097 L12.646,10.6076175 C13.1828966,10.217424 13.9384138,10.3303658 14.3335862,10.8600357 C14.7287586,11.3893654 14.6146207,12.1347133 14.078069,12.5249069 L11.2297931,14.59528 C10.8849655,14.845657 10.4746207,14.9718661 10.063931,14.9718661" id="Fill-23" fill="#FFFFFF"></path>
                    </g>
                </g>
            </g>
        </g>
    </g>
</svg>