<svg width="19" height="20" viewBox="0 0 19 20" fill="none" xmlns="http://www.w3.org/2000/svg">
<g clip-path="url(#clip0_6327_892)">
<path d="M2.58324 8.08719C2.98711 8.08719 3.38336 7.97289 3.72627 7.75444L7.85387 5.13564L2.05745 0.911511C1.20145 0.286656 0 0.898811 0 1.95548V6.39043L1.07699 7.46233C1.48086 7.86366 2.01427 8.08465 2.58578 8.08465L2.58324 8.08719Z" fill="#FF5A00"/>
<path d="M0.452131 12.2698L6.38318 17.3626L8.39491 19.0899C8.86482 19.4937 9.55318 19.5064 10.0383 19.1229L18.4866 12.4603C18.7965 12.2139 18.9793 11.8405 18.9793 11.4443V1.86316C18.9793 0.824275 17.8135 0.20704 16.9549 0.793794L9.17725 6.10253L4.54163 9.04392C3.93964 9.42747 3.2589 9.61289 2.58324 9.61289C1.64088 9.61289 0.706137 9.24966 0 8.54607V11.2893C0 11.6678 0.165104 12.026 0.452131 12.2698Z" fill="#FF5A00"/>
</g>
<defs>
<clipPath id="clip0_6327_892">
<rect width="18.9793" height="18.8346" fill="white" transform="translate(0 0.566406)"/>
</clipPath>
</defs>
</svg>
